<?xml version="1.0" encoding="UTF-8"?>
<svg width="816px" height="48px" viewBox="0 0 816 48" version="1.1" xmlns="http://www.w3.org/2000/svg" xmlns:xlink="http://www.w3.org/1999/xlink">
    <title>Creative Outcomes &amp;</title>
    <g id="Page-1" stroke="none" stroke-width="1" fill="none" fill-rule="evenodd">
        <g id="creative-outcomes-logo" transform="translate(-82, -243)" fill="#2B2B2B" fill-rule="nonzero">
            <g id="Creative-Outcomes-&amp;" transform="translate(82.764, 243.766)">
                <path d="M22.806,46.368 C34.398,46.368 42.462,39.627 44.541,28.161 L34.461,28.161 C33.39,33.894 28.854,37.611 22.806,37.611 C14.994,37.611 10.017,31.941 10.017,23.058 C10.017,14.364 14.994,8.757 22.806,8.757 C28.791,8.757 33.327,12.474 34.461,18.207 L44.541,18.207 C42.588,6.741 34.524,0 22.806,0 C8.883,0 0,9.45 0,23.058 C0,37.296 9.324,46.368 22.806,46.368 Z" id="Path"></path>
                <path d="M58.182969,45.234 L58.182969,30.177 L68.766969,30.177 C70.719969,30.177 72.168969,31.059 72.735969,32.697 L77.271969,45.234 L87.729969,45.234 L82.437969,31.122 C81.177969,27.909 78.594969,25.893 75.129969,25.389 C81.492969,24.066 85.713969,19.593 85.713969,13.923 C85.713969,6.363 79.854969,1.134 71.412969,1.134 L48.354969,1.134 L48.354969,45.234 L58.182969,45.234 Z M58.182969,9.891 L70.404969,9.891 C74.184969,9.891 76.074969,12.789 76.074969,15.75 C76.074969,18.648 74.184969,21.609 70.404969,21.609 L58.182969,21.609 L58.182969,9.891 Z" id="Shape"></path>
                <polygon id="Path" points="122.791938 45.234 122.791938 36.477 100.363938 36.477 100.363938 27.216 120.397938 27.216 120.397938 18.648 100.363938 18.648 100.363938 9.891 122.224938 9.891 122.224938 1.134 90.598938 1.134 90.598938 45.234"></polygon>
                <path d="M133.535907,45.234 L137.252907,36.099 L155.081907,36.099 L158.798907,45.234 L168.941907,45.234 L150.986907,1.134 L141.284907,1.134 L123.392907,45.234 L133.535907,45.234 Z M146.198907,13.986 L151.616907,27.531 L140.717907,27.531 L146.198907,13.986 Z" id="Shape"></path>
                <polygon id="Path" points="186.426876 45.234 186.426876 9.891 200.538876 9.891 200.538876 1.134 162.423876 1.134 162.423876 9.891 176.598876 9.891 176.598876 45.234"></polygon>
                <polygon id="Path" points="213.865845 45.234 213.865845 1.134 204.037845 1.134 204.037845 45.234"></polygon>
                <polygon id="Path" points="243.635814 45.234 260.267814 1.134 249.746814 1.134 238.469814 31.878 226.877814 1.134 216.293814 1.134 233.429814 45.234"></polygon>
                <polygon id="Path" points="294.888783 45.234 294.888783 36.477 272.460783 36.477 272.460783 27.216 292.494783 27.216 292.494783 18.648 272.460783 18.648 272.460783 9.891 294.321783 9.891 294.321783 1.134 262.695783 1.134 262.695783 45.234"></polygon>
                <path d="M330.992721,46.368 C344.915721,46.368 353.861721,36.792 353.861721,23.058 C353.861721,9.009 344.474721,0 330.992721,0 C317.132721,0 308.249721,9.45 308.249721,23.058 C308.249721,37.296 317.573721,46.368 330.992721,46.368 Z M330.992721,37.611 C323.180721,37.611 318.203721,31.941 318.203721,23.058 C318.203721,14.364 323.180721,8.757 330.992721,8.757 C338.867721,8.757 343.907721,14.364 343.907721,23.058 C343.907721,31.941 338.867721,37.611 330.992721,37.611 Z" id="Shape"></path>
                <path d="M376.51269,46.368 C388.16769,46.368 395.60169,39.942 395.60169,30.744 L395.60169,1.134 L385.77369,1.134 L385.77369,30.492 C385.77369,34.776 382.11969,37.485 376.44969,37.485 C370.77969,37.485 367.18869,34.776 367.18869,30.492 L367.18869,1.134 L357.36069,1.134 L357.36069,30.744 C357.36069,40.257 365.23569,46.368 376.51269,46.368 Z" id="Path"></path>
                <polygon id="Path" points="422.788659 45.234 422.788659 9.891 436.900659 9.891 436.900659 1.134 398.785659 1.134 398.785659 9.891 412.960659 9.891 412.960659 45.234"></polygon>
                <path d="M459.677628,46.368 C471.269628,46.368 479.333628,39.627 481.412628,28.161 L471.332628,28.161 C470.261628,33.894 465.725628,37.611 459.677628,37.611 C451.865628,37.611 446.888628,31.941 446.888628,23.058 C446.888628,14.364 451.865628,8.757 459.677628,8.757 C465.662628,8.757 470.198628,12.474 471.332628,18.207 L481.412628,18.207 C479.459628,6.741 471.395628,0 459.677628,0 C445.754628,0 436.871628,9.45 436.871628,23.058 C436.871628,37.296 446.195628,46.368 459.677628,46.368 Z" id="Path"></path>
                <path d="M505.953597,46.368 C519.876597,46.368 528.822597,36.792 528.822597,23.058 C528.822597,9.009 519.435597,0 505.953597,0 C492.093597,0 483.210597,9.45 483.210597,23.058 C483.210597,37.296 492.534597,46.368 505.953597,46.368 Z M505.953597,37.611 C498.141597,37.611 493.164597,31.941 493.164597,23.058 C493.164597,14.364 498.141597,8.757 505.953597,8.757 C513.828597,8.757 518.868597,14.364 518.868597,23.058 C518.868597,31.941 513.828597,37.611 505.953597,37.611 Z" id="Shape"></path>
                <polygon id="Path" points="542.464566 45.234 542.464566 18.018 552.607566 45.234 560.734566 45.234 570.877566 18.018 570.877566 45.234 580.705566 45.234 580.705566 1.134 568.672566 1.134 556.702566 33.453 544.669566 1.134 532.636566 1.134 532.636566 45.234"></polygon>
                <polygon id="Path" points="618.728535 45.234 618.728535 36.477 596.300535 36.477 596.300535 27.216 616.334535 27.216 616.334535 18.648 596.300535 18.648 596.300535 9.891 618.161535 9.891 618.161535 1.134 586.535535 1.134 586.535535 45.234"></polygon>
                <path d="M641.631504,46.368 C652.026504,46.368 658.767504,41.076 658.767504,32.76 C658.767504,24.444 652.467504,22.113 645.600504,19.971 L639.363504,18.018 C634.512504,16.506 631.929504,15.561 631.929504,12.726 C631.929504,10.206 634.323504,8.631 638.481504,8.631 C644.718504,8.631 647.616504,11.844 647.805504,15.561 L657.759504,15.561 C657.318504,6.363 649.884504,0 638.733504,0 C628.338504,0 622.227504,5.859 622.227504,13.293 C622.227504,21.924 629.472504,24.57 636.213504,26.523 L642.954504,28.476 C647.364504,29.736 648.813504,30.807 648.813504,33.327 C648.813504,36.162 646.293504,37.8 641.568504,37.8 C635.205504,37.8 631.803504,35.343 631.047504,31.374 L621.030504,31.374 C621.660504,40.635 629.535504,46.368 641.631504,46.368 Z" id="Path"></path>
                <path d="M690.146442,45.675 C687.164442,45.675 684.486942,45.129 682.113942,44.037 C679.740942,42.945 677.892942,41.4435 676.569942,39.5325 C675.246942,37.6215 674.585442,35.49 674.585442,33.138 C674.585442,27.72 678.302442,23.226 685.736442,19.656 C684.014442,17.808 682.722942,16.086 681.861942,14.49 C681.000942,12.894 680.570442,11.256 680.570442,9.576 C680.570442,7.896 680.990442,6.384 681.830442,5.04 C682.670442,3.696 683.835942,2.6355 685.326942,1.8585 C686.817942,1.0815 688.508442,0.693 690.398442,0.693 C693.212442,0.693 695.522442,1.491 697.328442,3.087 C699.134442,4.683 700.037442,6.741 700.037442,9.261 C700.037442,11.025 699.585942,12.558 698.682942,13.86 C697.779942,15.162 696.635442,16.275 695.249442,17.199 C693.863442,18.123 692.099442,19.11 689.957442,20.16 L704.195442,34.839 C706.337442,31.059 707.408442,26.397 707.408442,20.853 L710.054442,20.853 C710.054442,27.237 708.752442,32.55 706.148442,36.792 L712.889442,43.722 L710.810442,45.612 L704.573442,39.123 C702.809442,41.223 700.709442,42.84 698.273442,43.974 C695.837442,45.108 693.128442,45.675 690.146442,45.675 Z M688.256442,18.522 C691.154442,17.136 693.380442,15.792 694.934442,14.49 C696.488442,13.188 697.265442,11.508 697.265442,9.45 C697.265442,7.644 696.624942,6.1425 695.343942,4.9455 C694.062942,3.7485 692.414442,3.15 690.398442,3.15 C688.382442,3.15 686.691942,3.759 685.326942,4.977 C683.961942,6.195 683.279442,7.749 683.279442,9.639 C683.279442,11.067 683.699442,12.4845 684.539442,13.8915 C685.379442,15.2985 686.618442,16.842 688.256442,18.522 Z M689.894442,43.092 C692.540442,43.092 694.944942,42.5775 697.107942,41.5485 C699.270942,40.5195 701.108442,39.039 702.620442,37.107 L687.500442,21.357 C684.266442,22.995 681.788442,24.6645 680.066442,26.3655 C678.344442,28.0665 677.483442,30.282 677.483442,33.012 C677.483442,36.078 678.638442,38.5245 680.948442,40.3515 C683.258442,42.1785 686.240442,43.092 689.894442,43.092 Z" id="Shape"></path>
                <path d="M744.54638,45.675 C740.26238,45.675 736.53488,44.73 733.36388,42.84 C730.19288,40.95 727.75688,38.2935 726.05588,34.8705 C724.35488,31.4475 723.50438,27.51 723.50438,23.058 C723.50438,18.69 724.35488,14.8155 726.05588,11.4345 C727.75688,8.0535 730.18238,5.418 733.33238,3.528 C736.48238,1.638 740.17838,0.693 744.42038,0.693 C749.71238,0.693 754.10138,2.205 757.58738,5.229 C761.07338,8.253 763.27838,12.516 764.20238,18.018 L761.24138,18.018 C760.27538,13.398 758.31188,9.7965 755.35088,7.2135 C752.38988,4.6305 748.74638,3.339 744.42038,3.339 C740.64038,3.339 737.39588,4.221 734.68688,5.985 C731.97788,7.749 729.94088,10.1325 728.57588,13.1355 C727.21088,16.1385 726.52838,19.446 726.52838,23.058 C726.52838,27.258 727.33688,30.87 728.95388,33.894 C730.57088,36.918 732.74438,39.1965 735.47438,40.7295 C738.20438,42.2625 741.22838,43.029 744.54638,43.029 C749.12438,43.029 752.83088,41.769 755.66588,39.249 C758.50088,36.729 760.35938,33.096 761.24138,28.35 L764.20238,28.35 C763.27838,34.02 761.12588,38.325 757.74488,41.265 C754.36388,44.205 749.96438,45.675 744.54638,45.675 Z" id="Path"></path>
                <path d="M787.370349,45.675 C783.464349,45.675 779.957349,44.7405 776.849349,42.8715 C773.741349,41.0025 771.315849,38.3565 769.572849,34.9335 C767.829849,31.5105 766.958349,27.552 766.958349,23.058 C766.958349,18.774 767.798349,14.9415 769.478349,11.5605 C771.158349,8.1795 773.541849,5.523 776.628849,3.591 C779.715849,1.659 783.296349,0.693 787.370349,0.693 C791.318349,0.693 794.846349,1.6275 797.954349,3.4965 C801.062349,5.3655 803.498349,7.9905 805.262349,11.3715 C807.026349,14.7525 807.908349,18.648 807.908349,23.058 C807.908349,27.342 807.068349,31.206 805.388349,34.65 C803.708349,38.094 801.314349,40.7925 798.206349,42.7455 C795.098349,44.6985 791.486349,45.675 787.370349,45.675 Z M787.370349,43.029 C791.066349,43.029 794.237349,42.1365 796.883349,40.3515 C799.529349,38.5665 801.534849,36.1515 802.899849,33.1065 C804.264849,30.0615 804.947349,26.712 804.947349,23.058 C804.947349,18.9 804.159849,15.3405 802.584849,12.3795 C801.009849,9.4185 798.888849,7.1715 796.221849,5.6385 C793.554849,4.1055 790.604349,3.339 787.370349,3.339 C783.716349,3.339 780.566349,4.221 777.920349,5.985 C775.274349,7.749 773.279349,10.1325 771.935349,13.1355 C770.591349,16.1385 769.919349,19.446 769.919349,23.058 C769.919349,27.3 770.706849,30.9225 772.281849,33.9255 C773.856849,36.9285 775.967349,39.1965 778.613349,40.7295 C781.259349,42.2625 784.178349,43.029 787.370349,43.029 Z" id="Shape"></path>
                <path d="M812.113318,45.675 C811.273318,45.675 810.559318,45.3915 809.971318,44.8245 C809.383318,44.2575 809.089318,43.554 809.089318,42.714 C809.089318,41.874 809.383318,41.16 809.971318,40.572 C810.559318,39.984 811.273318,39.69 812.113318,39.69 C812.953318,39.69 813.656818,39.984 814.223818,40.572 C814.790818,41.16 815.074318,41.874 815.074318,42.714 C815.074318,43.554 814.790818,44.2575 814.223818,44.8245 C813.656818,45.3915 812.953318,45.675 812.113318,45.675 Z" id="Path"></path>
            </g>
        </g>
    </g>
</svg>